<?xml version="1.0" encoding="UTF-8" standalone="no" ?>
<!DOCTYPE svg PUBLIC "-//W3C//DTD SVG 1.1//EN" "http://www.w3.org/Graphics/SVG/1.1/DTD/svg11.dtd">
<svg xmlns="http://www.w3.org/2000/svg" xmlns:xlink="http://www.w3.org/1999/xlink" version="1.1" width="1080" height="1080" viewBox="0 0 1080 1080" xml:space="preserve">
<desc>Created with Fabric.js 5.2.4</desc>
<defs>
</defs>
<rect x="0" y="0" width="100%" height="100%" fill="transparent"></rect>
<g transform="matrix(1 0 0 1 540 540)" id="10c735f0-ae9e-4068-9e65-2ca7af4a4bf2"  >
<rect style="stroke: none; stroke-width: 1; stroke-dasharray: none; stroke-linecap: butt; stroke-dashoffset: 0; stroke-linejoin: miter; stroke-miterlimit: 4; fill: rgb(255,255,255); fill-rule: nonzero; opacity: 1; visibility: hidden;" vector-effect="non-scaling-stroke"  x="-540" y="-540" rx="0" ry="0" width="1080" height="1080" />
</g>
<g transform="matrix(Infinity NaN NaN Infinity 0 0)" id="91977d5a-c322-4612-b944-381d1f53cc01"  >
</g>
<g transform="matrix(1 0 0 1 1480.03 1464.92)"  >
<g style="" vector-effect="non-scaling-stroke"   >
		<g transform="matrix(0.13 0 0 -0.13 0 0)"  >
<path style="stroke: none; stroke-width: 1; stroke-dasharray: none; stroke-linecap: butt; stroke-dashoffset: 0; stroke-linejoin: miter; stroke-miterlimit: 4; fill: rgb(129,161,193); fill-rule: nonzero; opacity: 1;" vector-effect="non-scaling-stroke"  transform=" translate(-2558.09, -2558.06)" d="M 2315 5109 C 1518 5028 814 4591 388 3913 C -7 3286 -106 2494 122 1782 C 332 1123 801 578 1421 271 C 2181 -107 3058 -88 3800 321 C 4005 434 4178 564 4354 738 C 4572 954 4720 1159 4856 1435 C 4983 1692 5059 1943 5102 2245 C 5119 2363 5119 2757 5102 2875 C 5059 3177 4983 3428 4856 3685 C 4720 3961 4572 4166 4354 4382 C 3961 4771 3483 5008 2920 5095 C 2795 5114 2443 5123 2315 5109 z M 2717 4900 C 3280 4861 3784 4637 4187 4246 C 4554 3892 4789 3447 4874 2950 C 4882 2903 4886 2862 4882 2859 C 4872 2850 4584 2805 4350 2776 C 4077 2741 3735 2710 3602 2707 L 3489 2705 L 3456 2791 C 3349 3076 3123 3285 2823 3377 C 2742 3402 2722 3404 2560 3404 C 2398 3404 2378 3402 2297 3377 C 1997 3285 1771 3075 1664 2791 C 1643 2735 1626 2704 1614 2701 C 1571 2693 1052 2739 722 2782 L 549 2804 L 555 2854 C 596 3170 742 3515 951 3792 C 1031 3898 1222 4089 1328 4169 C 1656 4417 2021 4552 2439 4581 C 2611 4593 2633 4601 2656 4657 C 2676 4704 2660 4754 2616 4781 C 2580 4803 2521 4805 2355 4790 C 1848 4743 1375 4526 1006 4170 C 810 3981 670 3789 550 3545 C 450 3341 383 3133 349 2917 L 337 2839 L 291 2846 C 266 2849 242 2855 238 2859 C 229 2867 256 3022 291 3157 C 470 3857 998 4457 1677 4734 C 1891 4822 2159 4884 2385 4900 C 2542 4910 2570 4910 2717 4900 z M 2708 3184 C 2983 3127 3209 2914 3281 2643 C 3311 2532 3311 2373 3281 2265 C 3220 2046 3084 1882 2885 1785 C 2775 1732 2680 1710 2560 1710 C 2440 1710 2345 1732 2235 1785 C 2035 1882 1900 2045 1839 2265 C 1809 2373 1809 2532 1839 2643 C 1910 2910 2136 3126 2406 3183 C 2498 3203 2614 3204 2708 3184 z M 287 2631 C 509 2588 996 2529 1320 2505 C 1626 2482 1600 2489 1600 2428 L 1600 2378 L 1498 2385 C 1124 2409 607 2470 298 2526 L 210 2542 L 210 2591 C 210 2646 209 2645 287 2631 z M 4910 2591 C 4910 2533 4932 2543 4700 2505 C 4407 2458 3936 2405 3623 2384 L 3520 2377 L 3520 2428 C 3520 2489 3504 2483 3745 2500 C 4056 2522 4619 2589 4820 2629 C 4909 2647 4910 2646 4910 2591 z M 440 2286 C 648 2254 966 2215 1180 2196 C 1336 2181 1610 2160 1638 2160 C 1644 2160 1650 2154 1650 2147 C 1650 2141 1672 2090 1699 2035 C 1826 1779 2051 1596 2325 1524 C 2409 1502 2447 1498 2560 1498 C 2673 1498 2711 1502 2795 1524 C 3069 1596 3294 1779 3421 2035 C 3448 2090 3470 2140 3470 2146 C 3470 2154 3501 2160 3553 2164 C 3598 2168 3694 2175 3765 2181 C 4021 2201 4498 2253 4543 2266 C 4567 2273 4565 2240 4536 2108 C 4473 1834 4345 1562 4169 1328 C 4089 1222 3898 1031 3792 951 C 3465 704 3099 568 2685 539 C 2508 527 2487 520 2464 463 C 2444 416 2460 366 2504 339 C 2540 317 2599 315 2770 331 C 3558 404 4250 893 4592 1617 C 4678 1799 4755 2060 4776 2242 C 4783 2303 4783 2303 4853 2315 C 4889 2321 4890 2320 4890 2291 C 4890 2235 4841 1995 4806 1879 C 4553 1046 3847 413 2996 255 C 2650 191 2315 203 1966 291 C 1193 485 549 1104 314 1879 C 279 1993 230 2236 230 2292 C 230 2318 233 2321 253 2317 C 265 2314 349 2300 440 2286 z" stroke-linecap="round" />
</g>
		<g transform="matrix(0.13 0 0 -0.13 0.26 13.9)"  >
<path style="stroke: none; stroke-width: 1; stroke-dasharray: none; stroke-linecap: butt; stroke-dashoffset: 0; stroke-linejoin: miter; stroke-miterlimit: 4; fill: rgb(129,161,193); fill-rule: nonzero; opacity: 1;" vector-effect="non-scaling-stroke"  transform=" translate(-2560, -2453.81)" d="M 2484 2980 C 2265 2947 2084 2777 2039 2562 C 2023 2484 2032 2348 2058 2275 C 2138 2056 2361 1908 2590 1923 C 2863 1941 3073 2151 3088 2420 C 3093 2525 3079 2596 3036 2686 C 2937 2892 2707 3014 2484 2980 z M 2698 2741 C 2763 2708 2816 2654 2847 2592 C 2871 2544 2875 2523 2875 2455 C 2874 2350 2848 2288 2774 2221 C 2649 2107 2471 2107 2346 2221 C 2192 2361 2210 2601 2384 2718 C 2450 2762 2481 2770 2575 2766 C 2634 2764 2666 2758 2698 2741 z" stroke-linecap="round" />
</g>
</g>
</g>
<g transform="matrix(NaN NaN NaN NaN 0 0)"  >
<g style=""   >
</g>
</g>
<g transform="matrix(NaN NaN NaN NaN 0 0)"  >
<g style=""   >
</g>
</g>
<g transform="matrix(NaN NaN NaN NaN 0 0)"  >
<g style=""   >
</g>
</g>
<g transform="matrix(NaN NaN NaN NaN 0 0)"  >
<g style=""   >
</g>
</g>
<g transform="matrix(NaN NaN NaN NaN 0 0)"  >
<g style=""   >
</g>
</g>
<g transform="matrix(NaN NaN NaN NaN 0 0)"  >
<g style=""   >
</g>
</g>
<g transform="matrix(NaN NaN NaN NaN 0 0)"  >
<g style=""   >
</g>
</g>
<g transform="matrix(8.62 0 0 8.62 541.36 487.69)" id="051ed5a2-0948-437a-bfda-1f272bce9312"  >
<path style="stroke: rgb(129,161,193); stroke-width: 0; stroke-dasharray: none; stroke-linecap: butt; stroke-dashoffset: 0; stroke-linejoin: miter; stroke-miterlimit: 4; fill: rgb(129,161,193); fill-rule: nonzero; opacity: 1;" vector-effect="non-scaling-stroke"  transform=" translate(-61.44, -31.38)" d="M 122.84 30.39 C 122.82000000000001 29.91 122.79 29.44 122.75 28.96 C 122.75 28.96 122.75 28.96 122.75 28.95 C 122.75 28.95 122.75 28.95 122.75 28.939999999999998 C 122.29 23.759999999999998 120.58 18.909999999999997 117.67 14.529999999999998 C 116.37 12.579999999999998 114.89 10.799999999999997 113.23 9.209999999999997 C 110.81 6.879999999999997 108 4.9499999999999975 104.84 3.429999999999997 C 100.09 1.15 94.83 0 89.22 0 C 88.67 0 88.1 0.01 87.52 0.03 C 83.58 0.21 79.77 0.9500000000000001 76.19 2.27 C 72.58 3.58 69.42999999999999 5.3 66.86 7.369999999999999 C 66.34 7.789999999999999 65.77 8.299999999999999 65.16 8.86 L 64.72 9.29 L 64.12 9.93 L 64.12 9.93 L 64.12 9.93 L 63.84 10.209999999999999 L 63.7 10.36 L 62.980000000000004 11.12 C 62.45 11.719999999999999 61.940000000000005 12.319999999999999 61.470000000000006 12.899999999999999 L 61.470000000000006 12.889999999999999 L 61.45 12.87 C 60.470000000000006 14.069999999999999 59.550000000000004 15.299999999999999 58.89 16.419999999999998 C 58.44 17.13 57.99 17.869999999999997 57.57 18.61 L 51.7 30.49 L 51.71 30.5 L 51.4 31.1 L 50.75 32.410000000000004 C 49.46 35.02 48.08 37.61000000000001 46.54 39.760000000000005 C 43.1 43.53000000000001 39.22 45.370000000000005 34.22 45.370000000000005 C 33.87 45.370000000000005 33.51 45.35 33.15 45.330000000000005 C 30.14 45.21000000000001 27.56 44.50000000000001 25.27 43.14000000000001 C 25.03 42.99000000000001 24.79 42.85000000000001 24.56 42.690000000000005 C 22.689999999999998 41.45 21.259999999999998 39.85000000000001 20.18 37.86000000000001 C 18.97 35.60000000000001 18.43 33.300000000000004 18.509999999999998 30.85000000000001 C 18.52 30.78000000000001 18.52 30.730000000000008 18.52 30.67000000000001 C 18.68 26.78000000000001 20.169999999999998 23.750000000000007 23.15 21.140000000000008 C 23.88 20.51000000000001 24.639999999999997 19.980000000000008 25.43 19.51000000000001 C 25.54 19.44000000000001 25.65 19.38000000000001 25.77 19.320000000000007 C 27.99 18.110000000000007 30.52 17.51000000000001 33.41 17.51000000000001 L 34.309999999999995 17.54000000000001 C 38.91 17.72000000000001 42.459999999999994 19.15000000000001 45.28999999999999 21.960000000000008 L 54.169999999999995 6.0200000000000085 C 52.05 4.6000000000000085 49.64999999999999 3.3800000000000083 47.00999999999999 2.3800000000000083 C 46.90999999999999 2.3400000000000083 46.80999999999999 2.3000000000000083 46.69999999999999 2.2700000000000085 C 46.37999999999999 2.1600000000000086 46.069999999999986 2.0400000000000085 45.749999999999986 1.9400000000000084 C 42.93999999999998 1.0000000000000084 39.98999999999999 0.42000000000000837 36.95999999999999 0.16000000000000836 L 36.95999999999999 0.16000000000000836 C 36.87999999999999 0.15000000000000835 36.79999999999999 0.14000000000000837 36.72999999999999 0.13000000000000836 C 36.26999999999999 0.10000000000000836 35.78999999999999 0.04000000000000836 35.32999999999999 0.02000000000000836 C 34.82 0.01 34.3 0 33.81 0 L 33.52 0 C 27.940000000000005 0.02 22.750000000000004 1.16 18.010000000000005 3.43 C 12.7 5.99 8.4 9.72 5.2 14.52 C 2.02 19.32 0.28000000000000025 24.66 0.03000000000000025 30.38 C 0.01 30.87 0 31.35 0 31.83 C 0 39.83 2.91 46.87 8.71 52.78 C 14.760000000000002 58.980000000000004 22.64 62.32 32.09 62.72 C 32.7 62.75 33.290000000000006 62.76 33.89 62.76 C 39.24 62.76 44.19 61.809999999999995 48.63 59.9 C 49.74 59.43 50.82 58.87 51.92 58.25 C 52.52 57.91 53.08 57.54 53.64 57.15 L 54.06 56.87 L 54.760000000000005 56.39 C 55.60000000000001 55.79 56.39000000000001 55.14 57.150000000000006 54.44 L 57.42000000000001 54.19 C 57.87000000000001 53.76 58.32000000000001 53.33 58.74000000000001 52.879999999999995 L 60.33000000000001 51.08 L 60.94000000000001 50.32 L 61.22000000000001 49.9 L 61.500000000000014 49.49 C 63.860000000000014 45.52 71.56000000000002 31.060000000000002 71.56000000000002 31.060000000000002 L 71.56000000000002 31.03 L 72.02000000000001 30.150000000000002 L 72.4 29.46 C 73.53 27.39 74.35000000000001 25.93 75.44000000000001 24.39 L 75.47000000000001 24.34 C 78.00000000000001 20.67 82.35000000000001 18.06 87.48000000000002 17.62 C 96.08000000000001 16.880000000000003 103.62000000000002 22.53 104.31000000000002 30.240000000000002 C 105.00000000000001 37.95 98.58000000000001 44.81 89.98000000000002 45.550000000000004 C 88.19000000000001 45.7 86.45000000000002 45.580000000000005 84.81000000000002 45.220000000000006 L 84.77000000000001 45.24000000000001 C 78.46000000000001 43.93000000000001 74.44000000000001 39.32000000000001 72.46000000000001 37.27000000000001 L 64.18 52.49000000000001 C 64.18 52.49000000000001 66.75 55.08000000000001 68.51 56.38000000000001 C 70.28 57.67000000000001 72.56 58.94000000000001 74.38000000000001 59.73000000000001 C 78.80000000000001 61.62000000000001 83.60000000000001 62.750000000000014 88.91000000000001 62.750000000000014 C 89.53000000000002 62.750000000000014 89.4 62.750000000000014 90.04 62.72000000000001 C 99.49000000000001 62.33000000000001 107.9 58.710000000000015 113.98 52.51000000000001 C 119.73 46.62000000000001 122.85000000000001 39.90000000000001 122.88000000000001 31.940000000000012 L 122.88000000000001 31.700000000000014 C 122.87 31.28 122.86 30.83 122.84 30.39 L 122.84 30.39 z" stroke-linecap="round" />
</g>
<g transform="matrix(NaN NaN NaN NaN 0 0)"  >
<g style=""   >
</g>
</g>
<g transform="matrix(NaN NaN NaN NaN 0 0)"  >
<g style=""   >
</g>
</g>
<g transform="matrix(NaN NaN NaN NaN 0 0)"  >
<g style=""   >
</g>
</g>
<g transform="matrix(NaN NaN NaN NaN 0 0)"  >
<g style=""   >
</g>
</g>
</svg>