<?xml version="1.0" encoding="UTF-8" standalone="no" ?>
<!DOCTYPE svg PUBLIC "-//W3C//DTD SVG 1.1//EN" "http://www.w3.org/Graphics/SVG/1.1/DTD/svg11.dtd">
<svg xmlns="http://www.w3.org/2000/svg" xmlns:xlink="http://www.w3.org/1999/xlink" version="1.1" width="1080" height="1080" viewBox="0 0 1080 1080" xml:space="preserve">
<desc>Created with Fabric.js 5.2.4</desc>
<defs>
</defs>
<rect x="0" y="0" width="100%" height="100%" fill="transparent"></rect>
<g transform="matrix(1 0 0 1 540 540)" id="77422514-2fcb-4813-a7fa-44e72fc24ee5"  >
<rect style="stroke: none; stroke-width: 1; stroke-dasharray: none; stroke-linecap: butt; stroke-dashoffset: 0; stroke-linejoin: miter; stroke-miterlimit: 4; fill: rgb(255,255,255); fill-rule: nonzero; opacity: 1; visibility: hidden;" vector-effect="non-scaling-stroke"  x="-540" y="-540" rx="0" ry="0" width="1080" height="1080" />
</g>
<g transform="matrix(Infinity NaN NaN Infinity 0 0)" id="5f1462c9-e5de-450b-8c77-2e05ee211f8b"  >
</g>
<g transform="matrix(-0.19 0 0 -0.19 540 540)" id="a986a02f-7355-47cf-b7bb-30108f916d1d"  >
<path style="stroke: rgb(129,161,193); stroke-width: 0; stroke-dasharray: none; stroke-linecap: butt; stroke-dashoffset: 0; stroke-linejoin: miter; stroke-miterlimit: 4; fill: rgb(129,161,193); fill-rule: nonzero; opacity: 1;" vector-effect="non-scaling-stroke"  transform=" translate(-2560, -2559.38)" d="M 404 4595 C 213 4554 46 4382 10 4191 C -4 4117 -4 1003 10 929 C 47 735 214 566 409 524 C 508 503 4612 503 4711 524 C 4906 566 5073 735 5110 929 C 5124 1003 5124 4117 5110 4191 C 5073 4385 4906 4554 4711 4596 C 4616 4616 497 4615 404 4595 z M 1686 3560 L 2560 3021 L 3434 3561 L 4308 4101 L 4457 4098 L 4605 4095 L 4605 2560 L 4605 1025 L 4353 1022 L 4100 1020 L 4100 2146 C 4100 3120 4098 3271 4086 3267 C 4078 3264 3733 3047 3320 2786 C 2907 2524 2565 2310 2560 2310 C 2555 2310 2213 2524 1800 2786 C 1387 3047 1042 3264 1034 3267 C 1022 3271 1020 3120 1020 2146 L 1020 1020 L 768 1022 L 515 1025 L 512 2550 C 511 3389 512 4081 515 4088 C 518 4097 558 4100 666 4100 L 813 4100 L 1686 3560 z" stroke-linecap="round" />
</g>
<g transform="matrix(NaN NaN NaN NaN 0 0)"  >
<g style=""   >
</g>
</g>
<g transform="matrix(NaN NaN NaN NaN 0 0)"  >
<g style=""   >
</g>
</g>
<g transform="matrix(NaN NaN NaN NaN 0 0)"  >
<g style=""   >
</g>
</g>
<g transform="matrix(NaN NaN NaN NaN 0 0)"  >
<g style=""   >
</g>
</g>
<g transform="matrix(NaN NaN NaN NaN 0 0)"  >
<g style=""   >
</g>
</g>
<g transform="matrix(NaN NaN NaN NaN 0 0)"  >
<g style=""   >
</g>
</g>
</svg>