<svg viewBox="0 0 1024 1176.463" xmlns="http://www.w3.org/2000/svg"><path d="M450.298 278.507c-.806-.248-1.732-.39-2.692-.39-4.35 0-8.014 2.93-9.13 6.922l-.015.066c-31.99 111.368 112.73 223.096 208.5 297.034 26.113 20.154 48.627 37.55 63.623 51.665 41.727 36.855 77.845 78.63 107.86 124.742l1.428 2.342c1.63 3.112 4.838 5.2 8.534 5.2.876 0 1.725-.118 2.532-.338l-.067.016c1.878-.52 188.985-51.985 157.31-182.908-.226-.91-.54-1.71-.946-2.453l.027.054-227.17-412.08 29.03-124.444c.16-.656.253-1.41.253-2.183 0-5.302-4.298-9.6-9.6-9.6-.398 0-.79.024-1.175.07l.046-.004c-67.202 2.7-129.022 23.58-181.308 57.818l1.36-.836c-193.703-12.913-348.62 35.99-448.39 141.52C76.857 312.156 31.923 420.55 31.923 539.443c0 20.324 1.313 40.34 3.86 59.97l-.247-2.317C64.64 788.874 209.62 939.937 395.74 977.77l2.933.497c35.08 8.538 75.378 13.488 116.815 13.596h.07c4.7.212 10.21.333 15.748.333 123.788 0 233.48-60.348 301.264-153.23l.737-1.06c.99-1.485 1.58-3.31 1.58-5.274 0-5.302-4.3-9.6-9.6-9.6-2.685 0-5.112 1.102-6.854 2.877-77.247 77.198-183.936 124.942-301.776 124.942-85.364 0-164.876-25.054-231.584-68.21l1.672 1.012c-117.406-69.64-194.88-195.73-194.88-339.914 0-61.763 14.217-120.206 39.554-172.236l-1.028 2.336c66.434-132.646 201.306-222.113 357.073-222.113 35.552 0 70.015 4.66 102.812 13.404l-2.78-.63c.514.096 1.105.15 1.71.15 1.8 0 3.486-.486 4.934-1.335l-.045.025 13.396-7.878c32.828-22.77 71.206-40.397 112.498-50.64l2.39-.503-27.752 79.696c-.337.944-.53 2.034-.53 3.17 0 1.808.494 3.502 1.355 4.953l-.024-.046 243.21 407.56c-1.685 51.87-39.08 94.533-88.316 104.294l-.7.115c-24.162-43.957-54.99-81.124-91.593-111.586l-.62-.502c-25.116-21.428-52.834-41.973-81.915-60.575l-3.02-1.807c-94.533-64.02-237.413-160.753-215.58-239.29.23-.78.36-1.673.36-2.598 0-4.353-2.91-8.027-6.89-9.18l-.068-.018z"/></svg>