<?xml version="1.0" encoding="UTF-8" standalone="no" ?>
<!DOCTYPE svg PUBLIC "-//W3C//DTD SVG 1.1//EN" "http://www.w3.org/Graphics/SVG/1.1/DTD/svg11.dtd">
<svg xmlns="http://www.w3.org/2000/svg" xmlns:xlink="http://www.w3.org/1999/xlink" version="1.1" width="1080" height="1080" viewBox="0 0 1080 1080" xml:space="preserve">
<desc>Created with Fabric.js 5.2.4</desc>
<defs>
</defs>
<g transform="matrix(1 0 0 1 540 540)" id="ab2ceb72-b7b1-4b08-a920-f7bcf4471c2a"  >
</g>
<g transform="matrix(1 0 0 1 540 540)" id="c1b1f10a-ddb2-40b5-9877-e06e5f938222"  >
<rect style="stroke: none; stroke-width: 1; stroke-dasharray: none; stroke-linecap: butt; stroke-dashoffset: 0; stroke-linejoin: miter; stroke-miterlimit: 4; fill: rgb(255,255,255); fill-rule: nonzero; opacity: 1;" vector-effect="non-scaling-stroke"  x="-540" y="-540" rx="0" ry="0" width="1080" height="1080" />
</g>
<g transform="matrix(1 0 0 1 540 540)"  >
<g style="" vector-effect="non-scaling-stroke"   >
		<g transform="matrix(0.13 0 0 -0.13 0 0)"  >
<path style="stroke: none; stroke-width: 1; stroke-dasharray: none; stroke-linecap: butt; stroke-dashoffset: 0; stroke-linejoin: miter; stroke-miterlimit: 4; fill: rgb(129,161,193); fill-rule: nonzero; opacity: 1;" vector-effect="non-scaling-stroke"  transform=" translate(-2558.09, -2558.06)" d="M 2315 5109 C 1518 5028 814 4591 388 3913 C -7 3286 -106 2494 122 1782 C 332 1123 801 578 1421 271 C 2181 -107 3058 -88 3800 321 C 4005 434 4178 564 4354 738 C 4572 954 4720 1159 4856 1435 C 4983 1692 5059 1943 5102 2245 C 5119 2363 5119 2757 5102 2875 C 5059 3177 4983 3428 4856 3685 C 4720 3961 4572 4166 4354 4382 C 3961 4771 3483 5008 2920 5095 C 2795 5114 2443 5123 2315 5109 z M 2717 4900 C 3280 4861 3784 4637 4187 4246 C 4554 3892 4789 3447 4874 2950 C 4882 2903 4886 2862 4882 2859 C 4872 2850 4584 2805 4350 2776 C 4077 2741 3735 2710 3602 2707 L 3489 2705 L 3456 2791 C 3349 3076 3123 3285 2823 3377 C 2742 3402 2722 3404 2560 3404 C 2398 3404 2378 3402 2297 3377 C 1997 3285 1771 3075 1664 2791 C 1643 2735 1626 2704 1614 2701 C 1571 2693 1052 2739 722 2782 L 549 2804 L 555 2854 C 596 3170 742 3515 951 3792 C 1031 3898 1222 4089 1328 4169 C 1656 4417 2021 4552 2439 4581 C 2611 4593 2633 4601 2656 4657 C 2676 4704 2660 4754 2616 4781 C 2580 4803 2521 4805 2355 4790 C 1848 4743 1375 4526 1006 4170 C 810 3981 670 3789 550 3545 C 450 3341 383 3133 349 2917 L 337 2839 L 291 2846 C 266 2849 242 2855 238 2859 C 229 2867 256 3022 291 3157 C 470 3857 998 4457 1677 4734 C 1891 4822 2159 4884 2385 4900 C 2542 4910 2570 4910 2717 4900 z M 2708 3184 C 2983 3127 3209 2914 3281 2643 C 3311 2532 3311 2373 3281 2265 C 3220 2046 3084 1882 2885 1785 C 2775 1732 2680 1710 2560 1710 C 2440 1710 2345 1732 2235 1785 C 2035 1882 1900 2045 1839 2265 C 1809 2373 1809 2532 1839 2643 C 1910 2910 2136 3126 2406 3183 C 2498 3203 2614 3204 2708 3184 z M 287 2631 C 509 2588 996 2529 1320 2505 C 1626 2482 1600 2489 1600 2428 L 1600 2378 L 1498 2385 C 1124 2409 607 2470 298 2526 L 210 2542 L 210 2591 C 210 2646 209 2645 287 2631 z M 4910 2591 C 4910 2533 4932 2543 4700 2505 C 4407 2458 3936 2405 3623 2384 L 3520 2377 L 3520 2428 C 3520 2489 3504 2483 3745 2500 C 4056 2522 4619 2589 4820 2629 C 4909 2647 4910 2646 4910 2591 z M 440 2286 C 648 2254 966 2215 1180 2196 C 1336 2181 1610 2160 1638 2160 C 1644 2160 1650 2154 1650 2147 C 1650 2141 1672 2090 1699 2035 C 1826 1779 2051 1596 2325 1524 C 2409 1502 2447 1498 2560 1498 C 2673 1498 2711 1502 2795 1524 C 3069 1596 3294 1779 3421 2035 C 3448 2090 3470 2140 3470 2146 C 3470 2154 3501 2160 3553 2164 C 3598 2168 3694 2175 3765 2181 C 4021 2201 4498 2253 4543 2266 C 4567 2273 4565 2240 4536 2108 C 4473 1834 4345 1562 4169 1328 C 4089 1222 3898 1031 3792 951 C 3465 704 3099 568 2685 539 C 2508 527 2487 520 2464 463 C 2444 416 2460 366 2504 339 C 2540 317 2599 315 2770 331 C 3558 404 4250 893 4592 1617 C 4678 1799 4755 2060 4776 2242 C 4783 2303 4783 2303 4853 2315 C 4889 2321 4890 2320 4890 2291 C 4890 2235 4841 1995 4806 1879 C 4553 1046 3847 413 2996 255 C 2650 191 2315 203 1966 291 C 1193 485 549 1104 314 1879 C 279 1993 230 2236 230 2292 C 230 2318 233 2321 253 2317 C 265 2314 349 2300 440 2286 z" stroke-linecap="round" />
</g>
		<g transform="matrix(0.13 0 0 -0.13 0.26 13.9)"  >
<path style="stroke: none; stroke-width: 1; stroke-dasharray: none; stroke-linecap: butt; stroke-dashoffset: 0; stroke-linejoin: miter; stroke-miterlimit: 4; fill: rgb(129,161,193); fill-rule: nonzero; opacity: 1;" vector-effect="non-scaling-stroke"  transform=" translate(-2560, -2453.81)" d="M 2484 2980 C 2265 2947 2084 2777 2039 2562 C 2023 2484 2032 2348 2058 2275 C 2138 2056 2361 1908 2590 1923 C 2863 1941 3073 2151 3088 2420 C 3093 2525 3079 2596 3036 2686 C 2937 2892 2707 3014 2484 2980 z M 2698 2741 C 2763 2708 2816 2654 2847 2592 C 2871 2544 2875 2523 2875 2455 C 2874 2350 2848 2288 2774 2221 C 2649 2107 2471 2107 2346 2221 C 2192 2361 2210 2601 2384 2718 C 2450 2762 2481 2770 2575 2766 C 2634 2764 2666 2758 2698 2741 z" stroke-linecap="round" />
</g>
</g>
</g>
<g transform="matrix(NaN NaN NaN NaN 0 0)"  >
<g style=""   >
</g>
</g>
<g transform="matrix(NaN NaN NaN NaN 0 0)"  >
<g style=""   >
</g>
</g>
</svg>